<svg xmlns="http://www.w3.org/2000/svg" version="1.1" xmlns:xlink="http://www.w3.org/1999/xlink" xmlns:svgjs="http://svgjs.dev/svgjs" width="1440" height="560" preserveAspectRatio="none" viewBox="0 0 1440 560"><g mask="url(&quot;#SvgjsMask1002&quot;)" fill="none"><path d="M572.63 595.24C703.03 593.27 800.45 443.17 1069.1 435.09 1337.75 427.01 1426.56 190.17 1565.57 183.09" stroke="rgba(58, 194, 51, 0.58)" stroke-width="2"></path><path d="M719.67 646.03C808.27 622.06 748.86 395.69 969.07 376.62 1189.27 357.55 1333.41 178.78 1467.86 175.02" stroke="rgba(58, 194, 51, 0.58)" stroke-width="2"></path><path d="M407.05 585.49C555.44 550.44 604.03 160.54 837.35 153.26 1070.67 145.98 1052.5 223.26 1267.65 223.26 1482.8 223.26 1588.96 153.49 1697.95 153.26" stroke="rgba(58, 194, 51, 0.58)" stroke-width="2"></path><path d="M469.19 657.15C655.12 636.88 767.77 232.21 1083.52 230.2 1399.27 228.19 1540.64 363.82 1697.85 364.6" stroke="rgba(58, 194, 51, 0.58)" stroke-width="2"></path><path d="M783.01 645.16C938.01 613.61 1006.91 216.08 1246.17 214.13 1485.44 212.18 1584.2 400.86 1709.34 404.53" stroke="rgba(58, 194, 51, 0.58)" stroke-width="2"></path></g><defs><mask id="SvgjsMask1002"><rect width="1440" height="560" fill="#ffffff"></rect></mask></defs></svg>