<!--?xml version="1.0" standalone="no"?-->
              <svg id="sw-js-blob-svg" viewBox="0 0 100 100" xmlns="http://www.w3.org/2000/svg" version="1.1">
                    <defs> 
                        <linearGradient id="sw-gradient" x1="0" x2="1" y1="1" y2="0">
                            <stop id="stop1" stop-color="rgba(14, 213, 61, 1)" offset="0%"></stop>
                            <stop id="stop2" stop-color="rgba(15.447, 151.477, 47.575, 1)" offset="100%"></stop>
                        </linearGradient>
                    </defs>
                <path fill="url(#sw-gradient)" d="M14.6,-17.4C19.1,-13.7,22.9,-9.2,24.4,-3.8C26,1.6,25.3,7.9,22.8,14C20.3,20,15.9,25.8,9.5,29.6C3.2,33.3,-5.1,35.1,-14,33.9C-22.8,32.6,-32.2,28.3,-33.8,21.5C-35.4,14.7,-29.2,5.3,-26.9,-4.2C-24.6,-13.7,-26.1,-23.3,-22.3,-27.2C-18.4,-31.1,-9.2,-29.1,-2.1,-26.7C5.1,-24.2,10.2,-21.2,14.6,-17.4Z" width="100%" height="100%" transform="translate(50 50)" stroke-width="0" style="transition: 0.3s;" stroke="url(#sw-gradient)"></path>
              </svg>